<?xml version="1.0" encoding="UTF-8" standalone="no"?>
<!-- Created with Inkscape (http://www.inkscape.org/) -->

<svg
   width="210mm"
   height="297mm"
   viewBox="0 0 210 297"
   version="1.1"
   id="svg5"
   xml:space="preserve"
   inkscape:version="1.2.1 (9c6d41e410, 2022-07-14)"
   sodipodi:docname="bell.svg"
   xmlns:inkscape="http://www.inkscape.org/namespaces/inkscape"
   xmlns:sodipodi="http://sodipodi.sourceforge.net/DTD/sodipodi-0.dtd"
   xmlns="http://www.w3.org/2000/svg"
   xmlns:svg="http://www.w3.org/2000/svg"><sodipodi:namedview
     id="namedview7"
     pagecolor="#ffffff"
     bordercolor="#999999"
     borderopacity="1"
     inkscape:showpageshadow="0"
     inkscape:pageopacity="0"
     inkscape:pagecheckerboard="0"
     inkscape:deskcolor="#d1d1d1"
     inkscape:document-units="mm"
     showgrid="false"
     inkscape:zoom="0.74564394"
     inkscape:cx="411.0541"
     inkscape:cy="545.83693"
     inkscape:window-width="1920"
     inkscape:window-height="1017"
     inkscape:window-x="-8"
     inkscape:window-y="-8"
     inkscape:window-maximized="1"
     inkscape:current-layer="layer1" /><defs
     id="defs2" /><g
     inkscape:label="Layer 1"
     inkscape:groupmode="layer"
     id="layer1"><path
       style="fill:#000000;stroke-width:0.675755"
       d="m 99.954948,187.76887 c -3.731228,-1.17489 -8.247653,-4.48461 -9.016312,-6.60732 -0.377764,-1.04326 -0.0678,-1.76363 1.110408,-2.58025 2.093872,-1.45132 4.292179,-0.47085 7.003471,-0.17836 4.526695,0.48833 3.590595,0.17631 7.240045,0.17631 3.17875,0 4.71096,-0.80832 8.42252,-0.65071 1.65681,0.0704 1.89765,-0.53936 3.80448,0.0628 5.40316,1.70637 -0.21781,8.69627 -8.23394,10.23937 -4.25487,0.81907 -6.5949,0.71445 -10.330672,-0.46186 z M 56.537481,171.30819 c -4.862401,-1.3439 -7.912161,-5.10789 -6.967268,-8.59896 0.295456,-1.09158 7.660018,-1.1857 10.3272,-3.3196 4.705985,-9.15879 5.556891,-14.32297 5.582215,-23.62381 0.02761,-10.20026 3.453573,-16.77776 11.83555,-22.72416 5.57892,-3.95783 14.282291,-7.23952 20.7858,-7.83749 3.855292,-0.35449 3.890142,-0.37643 3.890142,-2.44841 0,-2.797967 2.39371,-4.402867 5.2306,-3.506953 1.56453,0.494098 2.02982,1.119643 2.22882,2.996523 l 0.25156,2.37207 4.96039,0.69836 c 9.07071,1.27704 17.56384,5.05827 23.35462,10.39771 5.73791,5.29072 7.09552,8.43858 7.87139,18.25161 0.95147,12.03365 -1.68851,15.16157 4.63361,24.02334 2.50272,3.50809 11.5333,3.63427 11.5333,6.17523 0,1.98411 -0.51735,3.32441 -1.74403,4.51848 -3.39052,3.30036 -2.73298,3.26143 -54.43868,3.22245 -29.408213,-0.0221 -48.073991,-0.2478 -49.335189,-0.59639 z m 97.238769,-5.66901 c 1.63637,-1.13423 -3.12373,3.25892 -7.30966,-0.32683 -8.66042,-7.41871 -6.88689,-17.77973 -7.88146,-29.94079 -0.51062,-6.24382 -1.08911,-8.9211 -2.4658,-11.412 -2.50474,-4.53188 -9.19109,-9.41883 -16.12445,-11.78507 -5.05356,-1.72472 -5.91723,-1.83839 -13.96658,-1.83839 -8.28711,0 -8.791451,0.0725 -14.778163,2.1223 -13.06988,4.47516 -18.456749,11.87125 -18.473358,25.36364 -0.0034,2.74018 -0.585124,6.5377 -1.292784,8.43892 -1.601631,4.30298 -2.174175,15.97175 -6.139028,19.12017 -4.134034,3.28275 -9.543181,-2.34092 -8.608519,-1.13042 0.725401,0.93946 4.301845,2.06358 48.773462,2.06358 35.70065,0 47.53105,-0.16543 48.26634,-0.67512 z"
       id="path302"
       sodipodi:nodetypes="sscssssssscscssssccsssssscsscssssscssssscss" /></g></svg>
