<?xml version="1.0" encoding="UTF-8" standalone="no"?>
<!-- Created with Inkscape (http://www.inkscape.org/) -->

<svg
   width="210mm"
   height="297mm"
   viewBox="0 0 210 297"
   version="1.1"
   id="svg5"
   xml:space="preserve"
   inkscape:version="1.2.1 (9c6d41e410, 2022-07-14)"
   sodipodi:docname="Info.svg"
   xmlns:inkscape="http://www.inkscape.org/namespaces/inkscape"
   xmlns:sodipodi="http://sodipodi.sourceforge.net/DTD/sodipodi-0.dtd"
   xmlns="http://www.w3.org/2000/svg"
   xmlns:svg="http://www.w3.org/2000/svg"><sodipodi:namedview
     id="namedview7"
     pagecolor="#ffffff"
     bordercolor="#999999"
     borderopacity="1"
     inkscape:showpageshadow="0"
     inkscape:pageopacity="0"
     inkscape:pagecheckerboard="0"
     inkscape:deskcolor="#d1d1d1"
     inkscape:document-units="mm"
     showgrid="false"
     inkscape:zoom="0.74564394"
     inkscape:cx="224.63805"
     inkscape:cy="561.9304"
     inkscape:window-width="1920"
     inkscape:window-height="1017"
     inkscape:window-x="-8"
     inkscape:window-y="-8"
     inkscape:window-maximized="1"
     inkscape:current-layer="layer1" /><defs
     id="defs2" /><g
     inkscape:label="Layer 1"
     inkscape:groupmode="layer"
     id="layer1"><path
       style="fill:#000000;stroke-width:0.670113"
       d="m 97.391871,174.65848 c -21.211196,-3.24562 -38.829986,-19.46003 -44.020096,-40.51129 -1.540098,-6.24669 -1.540098,-18.47007 0,-24.71676 4.334097,-17.579237 17.999158,-32.640606 34.612156,-38.148854 13.829539,-4.585359 27.342369,-3.712761 40.541849,2.618009 13.5995,6.522629 23.72613,18.518166 28.26532,33.481785 1.74361,5.74788 1.74361,23.067 0,28.81487 -3.20726,10.57288 -9.86186,20.55137 -18.23699,27.34615 -4.83921,3.92607 -14.42186,8.6351 -20.58161,10.11405 -5.81309,1.39571 -15.06415,1.84614 -20.580629,1.00204 z m 22.273709,-8.16665 c 7.13653,-2.30761 13.73185,-6.38868 19.09592,-11.81623 5.38389,-5.4476 8.92683,-11.20891 11.36393,-18.47936 1.59581,-4.76063 1.79702,-6.37385 1.79702,-14.40743 0,-8.03358 -0.20121,-9.6468 -1.79702,-14.40744 -2.4371,-7.27043 -5.98004,-13.031748 -11.36393,-18.479353 -21.23917,-21.490516 -56.989413,-17.670099 -73.303903,7.833556 -5.480859,8.567967 -8.171066,20.428387 -6.91171,30.471947 2.47324,19.72447 16.294607,35.27165 35.804124,40.27483 6.802369,1.74446 18.241559,1.29687 25.315569,-0.99052 z M 93.113641,147.36788 c -2.69064,-2.97312 -0.34045,-5.47567 5.14228,-5.47567 h 3.800389 v -10.0517 -10.0517 h -2.724509 c -3.78094,0 -5.31685,-0.96789 -5.31685,-3.35057 0,-2.61012 1.55493,-3.35056 7.036189,-3.35056 7.36055,0 7.03619,-0.64982 7.03619,14.09595 v 12.70858 h 3.72967 c 4.77234,0 6.32203,0.82131 6.32203,3.35056 0,1.25512 -0.4675,2.21339 -1.29618,2.65688 -0.73769,0.3948 -5.89007,0.69369 -11.95817,0.69369 -9.478149,0 -10.785159,-0.13607 -11.771039,-1.22546 z m 8.942669,-42.3319 c -2.835759,-2.83576 -0.76792,-8.053101 3.18304,-8.0311 2.24404,0.0125 3.06869,0.522837 4.14487,2.565078 2.4398,4.629972 -3.63366,9.160272 -7.32791,5.466022 z"
       id="path248" /></g></svg>
