<?xml version="1.0" encoding="UTF-8" standalone="no"?>
<!-- Created with Inkscape (http://www.inkscape.org/) -->

<svg
   width="210mm"
   height="297mm"
   viewBox="0 0 210 297"
   version="1.1"
   id="svg5"
   xml:space="preserve"
   inkscape:version="1.2.1 (9c6d41e410, 2022-07-14)"
   sodipodi:docname="Replay.svg"
   xmlns:inkscape="http://www.inkscape.org/namespaces/inkscape"
   xmlns:sodipodi="http://sodipodi.sourceforge.net/DTD/sodipodi-0.dtd"
   xmlns="http://www.w3.org/2000/svg"
   xmlns:svg="http://www.w3.org/2000/svg"><sodipodi:namedview
     id="namedview7"
     pagecolor="#ffffff"
     bordercolor="#999999"
     borderopacity="1"
     inkscape:showpageshadow="0"
     inkscape:pageopacity="0"
     inkscape:pagecheckerboard="0"
     inkscape:deskcolor="#d1d1d1"
     inkscape:document-units="mm"
     showgrid="false"
     inkscape:zoom="0.37282197"
     inkscape:cx="-140.81788"
     inkscape:cy="380.87884"
     inkscape:window-width="1920"
     inkscape:window-height="1017"
     inkscape:window-x="-8"
     inkscape:window-y="-8"
     inkscape:window-maximized="1"
     inkscape:current-layer="layer1" /><defs
     id="defs2" /><g
     inkscape:label="Layer 1"
     inkscape:groupmode="layer"
     id="layer1"><path
       style="fill:#000000;stroke-width:0.840115"
       d="m 119.76158,201.90558 c 13.88272,-2.65097 24.56927,-8.15751 34.95739,-18.01266 4.44289,-4.21494 6.19676,-7.68751 3.88268,-7.68751 -0.52141,0 -3.51661,2.42312 -6.65603,5.3847 -6.92324,6.53099 -14.91947,11.37816 -23.90031,14.48786 -6.11675,2.11798 -7.81602,2.33002 -18.90262,2.35885 -13.327883,0.0346 -19.534843,-1.28724 -29.380023,-6.25706 -20.85682,-10.52849 -34.46876,-32.76172 -34.46876,-56.2999 0,-23.53819 13.61194,-45.771379 34.46876,-56.299873 9.84518,-4.969823 16.05214,-6.291707 29.380023,-6.257065 11.0866,0.02858 12.78587,0.241 18.90262,2.358854 13.33406,4.617022 25.32853,13.72793 32.73017,24.861594 3.08691,4.64337 7.17532,12.59951 7.17532,13.96334 0,0.18194 -6.52141,0.43402 -14.49202,0.56046 -13.85529,0.21973 -14.49199,0.30356 -14.49199,1.9101 0,1.61778 0.636,1.68869 17.11493,1.90797 11.91486,0.15844 17.46664,-0.0641 18.27252,-0.73294 1.76861,-1.46785 1.68354,-34.557476 -0.0927,-36.031581 -1.89686,-1.574252 -2.07296,-0.359914 -2.31348,15.953932 l -0.21687,14.702029 -4.09933,-7.81696 c -6.99372,-13.336332 -19.70075,-25.148607 -33.08339,-30.753923 -8.90461,-3.729669 -15.66911,-4.984111 -26.66607,-4.945151 -11.171423,0.03969 -20.286113,2.156242 -29.658813,6.887573 -17.46627,8.816944 -30.40185,25.614761 -34.99963,45.449691 -1.62779,7.02227 -1.62779,21.54166 0,28.56392 4.59778,19.83491 17.53336,36.63275 34.99963,45.4497 11.94627,6.03045 29.215293,8.64716 41.537853,6.29405 z"
       id="path302"
       sodipodi:nodetypes="ssscscsssccsscscssccsscsscsss" /></g></svg>
