<?xml version="1.0" encoding="UTF-8" standalone="no"?>
<!-- Created with Inkscape (http://www.inkscape.org/) -->

<svg
   width="210mm"
   height="297mm"
   viewBox="0 0 210 297"
   version="1.1"
   id="svg5"
   xml:space="preserve"
   inkscape:version="1.2.1 (9c6d41e410, 2022-07-14)"
   sodipodi:docname="search.svg"
   xmlns:inkscape="http://www.inkscape.org/namespaces/inkscape"
   xmlns:sodipodi="http://sodipodi.sourceforge.net/DTD/sodipodi-0.dtd"
   xmlns="http://www.w3.org/2000/svg"
   xmlns:svg="http://www.w3.org/2000/svg"><sodipodi:namedview
     id="namedview7"
     pagecolor="#ffffff"
     bordercolor="#999999"
     borderopacity="1"
     inkscape:showpageshadow="0"
     inkscape:pageopacity="0"
     inkscape:pagecheckerboard="0"
     inkscape:deskcolor="#d1d1d1"
     inkscape:document-units="mm"
     showgrid="false"
     inkscape:zoom="0.74564394"
     inkscape:cx="224.63805"
     inkscape:cy="561.9304"
     inkscape:window-width="1920"
     inkscape:window-height="1017"
     inkscape:window-x="-8"
     inkscape:window-y="-8"
     inkscape:window-maximized="1"
     inkscape:current-layer="layer1" /><defs
     id="defs2" /><g
     inkscape:label="Layer 1"
     inkscape:groupmode="layer"
     id="layer1"><path
       style="fill:#000000;stroke-width:0.821099"
       d="m 149.11433,174.96682 -17.82083,-17.75378 -4.87957,3.01185 c -15.27456,9.428 -35.658513,10.40406 -51.760166,2.47847 C 39.901292,145.59742 34.136806,98.41434 63.784974,73.740883 94.461245,48.211827 141.5773,64.126127 150.32817,102.97242 c 3.28126,14.56596 0.45526,29.78909 -7.75569,41.77833 l -2.29347,3.34881 18.00671,17.99274 c 15.92854,15.91622 18.00668,18.29465 18.00668,20.60872 0,3.22069 -3.18131,6.01956 -6.84209,6.01956 -2.17912,0 -4.89608,-2.37198 -20.33598,-17.75376 z m -42.39372,-20.40209 c 10.41917,-2.20787 20.25693,-9.0837 26.04191,-18.20129 7.75737,-12.22619 7.75737,-31.06819 0,-43.29439 C 129.17064,87.407963 123.20533,81.8692 117.3241,78.734536 95.569802,67.13961 68.434922,77.542496 59.923219,100.74072 c -1.943596,5.29717 -2.254742,7.34246 -2.188509,14.38608 0.06409,6.8156 0.450845,9.18063 2.275829,13.91677 5.116532,13.27827 15.7645,22.43685 29.656011,25.5079 6.490099,1.43478 10.331635,1.43778 17.05406,0.0133 z"
       id="path856" /></g></svg>
